<svg viewBox="-1010 -1010 2020 2020" xmlns="http://www.w3.org/2000/svg">
<circle cx="-16.492192922499314" cy="15.108199683271161" r="5"/>
<circle cx="3.3868305720969447" cy="-38.59118751559096" r="5"/>
<circle cx="30.429551387951403" cy="39.689961295530146" r="5"/>
<circle cx="-58.27100499887569" cy="-10.307320304459486" r="5"/>
<circle cx="56.61498138228306" cy="-36.013816913047755" r="5"/>
<circle cx="-19.25758553087217" cy="71.63725828930772" r="5"/>
<circle cx="-37.16880567564047" cy="-71.56627355437323" r="5"/>
<circle cx="81.3679550253825" cy="29.71544667214849" r="5"/>
<circle cx="-85.2417625922554" cy="35.18656044896403" r="5"/>
<circle cx="41.321729199955996" cy="-88.30213515036654" r="5"/>
<circle cx="30.675139983961234" cy="97.79717998632445" r="5"/>
<circle cx="-92.80677011587095" cy="-53.78342028077148" r="5"/>
<circle cx="109.222980249624" cy="-24.01236581333717" r="5"/>
<circle cx="-66.84071329677852" cy="95.07403653293679" r="5"/>
<circle cx="-15.478606391429425" cy="-119.44733722855693" r="5"/>
<circle cx="95.22184064789545" cy="80.25306810686602" r="5"/>
<circle cx="-128.37473213353755" cy="5.308698211992797" r="5"/>
<circle cx="93.792768734661" cy="-93.33633220924739" r="5"/>
<circle cx="-6.284287165361416" cy="135.90350386261912" r="5"/>
<circle cx="-89.49253891718013" cy="-107.24197105422729" r="5"/>
<circle cx="141.9350333229076" cy="19.09715798722124" r="5"/>
<circle cx="-120.39156060667312" cy="83.76531210697298" r="5"/>
<circle cx="32.930439026047374" cy="-146.37910306244424" r="5"/>
<circle cx="76.23544614389627" cy="133.04101859644663" r="5"/>
<circle cx="-149.15730079146948" cy="-47.585247174593114" r="5"/>
<circle cx="144.99887331665607" cy="-66.99315722586464" r="5"/>
<circle cx="-62.861908405450876" cy="150.20531648360142" r="5"/>
<circle cx="-56.13999777717794" cy="-156.08349537352655" r="5"/>
<circle cx="149.47454971692662" cy="78.55963413538989" r="5"/>
<circle cx="-166.12408868216403" cy="43.789776640328284" r="5"/>
<circle cx="94.47687254722695" cy="-146.93324396646744" r="5"/>
<circle cx="30.068806638213207" cy="174.96178081596338" r="5"/>
<circle cx="-142.56726611418168" cy="-110.41210423587007" r="5"/>
<circle cx="182.4507463881506" cy="-15.115671390855939" r="5"/>
<circle cx="-126.16493559366437" cy="136.3805985320536" r="5"/>
<circle cx="0.9193677150401066" cy="-188.45931561598184" r="5"/>
<circle cx="128.39558381595458" cy="141.5373914770403" r="5"/>
<circle cx="-192.8710321301531" cy="-17.875243907127302" r="5"/>
<circle cx="156.33533740586134" cy="-118.65294732121241" r="5"/>
<circle cx="-35.5811799934681" cy="195.5856321671211" r="5"/>
<circle cx="-107.21161445616453" cy="-170.36997932666353" r="5"/>
<circle cx="196.5199230458279" cy="53.85796344322702" r="5"/>
<circle cx="-183.45940039004242" cy="94.14833529511435" r="5"/>
<circle cx="72.51936789801286" cy="-195.608543167503" r="5"/>
<circle cx="79.55712688340274" cy="195.43010180784188" r="5"/>
<circle cx="-192.8045892157705" cy="-91.37369292103902" r="5"/>
<circle cx="206.11852014863362" cy="-63.548542725641724" r="5"/>
<circle cx="-110.22539727669121" cy="188.08009909646495" r="5"/>
<circle cx="-46.24877884889045" cy="-215.37249728331597" r="5"/>
<circle cx="181.42638164252324" cy="128.87680328628616" r="5"/>
<circle cx="-223.0526821464405" cy="27.798626199771757" r="5"/>
<circle cx="147.12985130363256" cy="-172.8541863444785" r="5"/>
<circle cx="8.352279771443115" cy="229.0338458703982" r="5"/>
<circle cx="-162.39370843004747" cy="-164.78788439696524" r="5"/>
<circle cx="233.2060938927669" cy="11.923984363202432" r="5"/>
<circle cx="-181.65744410497908" cy="150.09442655604298" r="5"/>
<circle cx="32.85325209487266" cy="-235.47596046912466" r="5"/>
<circle cx="136.02477222149042" cy="197.55005878076253" r="5"/>
<circle cx="-235.76737273289777" cy="-54.24952153653536" r="5"/>
<circle cx="212.28400663188765" cy="-120.2716317788775" r="5"/>
<circle cx="-75.91934682888454" cy="234.02247308675683" r="5"/>
<circle cx="-102.93968361885048" cy="-225.6860361633885" r="5"/>
<circle cx="230.20229032214525" cy="97.66356108219269" r="5"/>
<circle cx="-237.5930273701043" cy="84.1505747339276" r="5"/>
<circle cx="119.27906338943026" cy="-224.28725146563016" r="5"/>
<circle cx="64.04194242769044" cy="247.8535777294328" r="5"/>
<circle cx="-216.2775279542642" cy="-140.56065429311695" r="5"/>
<circle cx="256.32949783047957" cy="-42.76628842225935" r="5"/>
<circle cx="-161.30290365104813" cy="206.19321135116806" r="5"/>
<circle cx="-20.489714022954136" cy="-262.89720234903484" r="5"/>
<circle cx="194.07431542662775" cy="181.302034532166" r="5"/>
<circle cx="-267.44898304357537" cy="-2.6094736824295297" r="5"/>
<circle cx="200.35780659016694" cy="-179.9806030450068" r="5"/>
<circle cx="-26.342273388965516" cy="269.8941515055358" r="5"/>
<circle cx="-163.99123790738795" cy="-218.27538231307636" r="5"/>
<circle cx="270.16004054457716" cy="50.5106065831193" r="5"/>
<circle cx="-234.867159635023" cy="146.2042627953915" r="5"/>
<circle cx="74.90902666313549" cy="-268.1928543214267" r="5"/>
<circle cx="126.73590753422054" cy="249.95455462202503" r="5"/>
<circle cx="-263.958358650153" cy="-99.32650594710198" r="5"/>
<circle cx="263.36971830690214" cy="-105.71973143179362" r="5"/>
<circle cx="-123.54828557609235" cy="257.4424042701608" r="5"/>
<circle cx="-83.30560644551831" cy="-274.95717224699206" r="5"/>
<circle cx="248.65127732616972" cy="147.3577726810057" r="5"/>
<circle cx="-284.5753480090843" cy="59.658548767769666" r="5"/>
<circle cx="170.53846867784014" cy="-237.61187278145465" r="5"/>
<circle cx="34.957407894546144" cy="292.0980165442967" r="5"/>
<circle cx="-224.37168801454723" cy="-192.87591219083234" r="5"/>
<circle cx="297.4155942957441" cy="-9.393423538698906" r="5"/>
<circle cx="-214.159619879758" cy="208.9986354002118" r="5"/>
<circle cx="16.831338041400166" cy="-300.43631387709155" r="5"/>
<circle cx="191.58067424000964" cy="234.18500836771457" r="5"/>
<circle cx="-301.08724826235243" cy="-43.50565561364221" r="5"/>
<circle cx="252.7552805306048" cy="-172.2252639730554" r="5"/>
<circle cx="-70.4109187534298" cy="299.31517862800797" r="5"/>
<circle cx="-151.05864215121716" cy="-269.6832596183419" r="5"/>
<circle cx="295.08729727782213" cy="97.32297325060901" r="5"/>
<circle cx="-284.7931550293048" cy="128.2249321920193" r="5"/>
<circle cx="124.01403078749996" cy="-288.3917384481665" r="5"/>
<circle cx="103.88508741450498" cy="297.9222440509006" r="5"/>
<circle cx="-279.2379312261383" cy="-150.25462689087226" r="5"/>
<circle cx="308.9224545068276" cy="-78.2156793051806" r="5"/>
<circle cx="-175.81561065271973" cy="267.65677030224765" r="5"/>
<circle cx="-51.40753934172304" cy="-317.6618340102776" r="5"/>
<circle cx="253.70060181197118" cy="200.4701493447658" r="5"/>
<circle cx="-324.02589240644016" cy="23.664265008746796" r="5"/>
<circle cx="223.99573082430578" cy="-237.44302308302156" r="5"/>
<circle cx="-4.799398137910681" cy="327.9188049898298" r="5"/>
<circle cx="-218.97849668495556" cy="-246.17614654585483" r="5"/>
<circle cx="329.2644651942651" cy="33.759285374974006" r="5"/>
<circle cx="-266.80343805556083" cy="198.4217807614676" r="5"/>
<circle cx="62.983638678106374" cy="-328.00737666676065" r="5"/>
<circle cx="175.90717920014825" cy="285.679790053333" r="5"/>
<circle cx="-324.113375941322" cy="-92.23501463714244" r="5"/>
<circle cx="302.619353459871" cy="-151.58761674638657" r="5"/>
<circle cx="-121.27225871998499" cy="317.57017831401885" r="5"/>
<circle cx="-125.63354568438793" cy="-317.4499824198114" r="5"/>
<circle cx="308.38774097538686" cy="149.8525295275077" r="5"/>
<circle cx="-330.0148698044779" cy="98.23169217596453" r="5"/>
<circle cx="177.73335615866594" cy="-296.5984389684507" r="5"/>
<circle cx="69.5836517549919" cy="340.17406654315965" r="5"/>
<circle cx="-282.25705109750504" cy="-204.67471142262679" r="5"/>
<circle cx="347.80587100523246" cy="-39.904344808701815" r="5"/>
<circle cx="-230.4410833945332" cy="265.4405545021314" r="5"/>
<circle cx="-9.420344127073891" cy="-352.8080756687661" r="5"/>
<circle cx="246.24772821885983" cy="254.80352771840876" r="5"/>
<circle cx="-355.0990594375969" cy="-21.631912244515448" r="5"/>
<circle cx="277.54168311450803" cy="-224.79856766650332" r="5"/>
<circle cx="-53.008008565097036" cy="354.61871519849757" r="5"/>
<circle cx="-201.23351359685137" cy="-298.44573274996145" r="5"/>
<circle cx="351.3292035335415" cy="84.45752415154068" r="5"/>
<circle cx="-317.31829447960433" cy="175.7125006366958" r="5"/>
<circle cx="115.72607529497883" cy="-345.21552490928286" r="5"/>
<circle cx="148.41383209677193" cy="333.97622345617214" r="5"/>
<circle cx="-336.28590414259844" cy="-146.55740962781795" r="5"/>
<circle cx="348.25231124209034" cy="-119.53288922505068" r="5"/>
<circle cx="-176.69553568345222" cy="324.5719824809419" r="5"/>
<circle cx="-89.28068452318875" cy="-359.996866324232" r="5"/>
<circle cx="310.1288142198043" cy="205.88686998674595" r="5"/>
<circle cx="-369.0791618324531" cy="57.882270113568275" r="5"/>
<circle cx="233.88238375470084" cy="-293.0346663993701" r="5"/>
<circle cx="25.57501342853723" cy="375.38873728553244" r="5"/>
<circle cx="-273.39062176228435" cy="-260.4397311764336" r="5"/>
<circle cx="378.8365423264066" cy="7.39324631804518" r="5"/>
<circle cx="-285.32534128062525" cy="251.31998680201755" r="5"/>
<circle cx="40.7661463335977" cy="-379.3559116532973" r="5"/>
<circle cx="226.96750837181617" cy="308.3164555887526" r="5"/>
<circle cx="-376.90336169479434" cy="-74.28083761381372" r="5"/>
<circle cx="329.2030940906291" cy="-200.49840394558797" r="5"/>
<circle cx="-107.67009511934828" cy="371.4592010042117" r="5"/>
<circle cx="-172.0972122091966" cy="-347.78993256511126" r="5"/>
<circle cx="363.0279478504557" cy="140.6644836958989" r="5"/>
<circle cx="-363.89807489846385" cy="141.96647220123498" r="5"/>
<circle cx="172.9945620969518" cy="-351.6385500468926" r="5"/>
<circle cx="110.32524070300659" cy="377.366704821909" r="5"/>
<circle cx="-337.3444036737359" cy="-204.39310703753878" r="5"/>
<circle cx="388.05460239242666" cy="-77.40745898573309" r="5"/>
<circle cx="-234.5973389239796" cy="320.22316900012845" r="5"/>
<circle cx="-43.46018134692386" cy="-395.8415115701168" r="5"/>
<circle cx="300.3763835859056" cy="263.35113077182774" r="5"/>
<circle cx="-400.6293463934642" cy="8.741679096046344" r="5"/>
<circle cx="290.4071818439087" cy="-277.9288742262606" r="5"/>
<circle cx="-26.48056522847685" cy="402.3432245117383" r="5"/>
<circle cx="-253.02797108134396" cy="-315.5291377129952" r="5"/>
<circle cx="400.93231819166346" cy="61.93195762311624" r="5"/>
<circle cx="-338.49363877862015" cy="225.84252899333828" r="5"/>
<circle cx="97.33296969521597" cy="-396.37051436267694" r="5"/>
<circle cx="196.56176262198048" cy="359.09227974280947" r="5"/>
<circle cx="-388.6568767900132" cy="-132.4013756344909" r="5"/>
<circle cx="377.13346317204685" cy="-165.39390361212372" r="5"/>
<circle cx="-166.85453105449577" cy="377.81590505550116" r="5"/>
<circle cx="-132.56468953117874" cy="-392.4441310377191" r="5"/>
<circle cx="363.8975866691446" cy="200.41167521615526" r="5"/>
<circle cx="-404.8713590300171" cy="98.31569576565747" r="5"/>
<circle cx="232.7962378312974" cy="-346.97724031759986" r="5"/>
<circle cx="62.902522934766125" cy="414.28379947252307" r="5"/>
<circle cx="-327.1551499643612" cy="-263.73813148437563" r="5"/>
<circle cx="420.57295982017183" cy="-26.592853650910563" r="5"/>
<circle cx="-292.97601070535484" cy="304.5559912372427" r="5"/>
<circle cx="10.335606377185226" cy="-423.6543049920118" r="5"/>
<circle cx="279.3280532573981" cy="320.25947887768433" r="5"/>
<circle cx="-423.46817316278776" cy="-47.59728685408438" r="5"/>
<circle cx="345.3512244717268" cy="-251.64226076655493" r="5"/>
<circle cx="-84.90099405222527" cy="419.98049610296545" r="5"/>
<circle cx="-221.6910030813065" cy="-368.0290685542084" r="5"/>
<circle cx="413.18331670386607" cy="121.95221685476594" r="5"/>
<circle cx="-388.0879061352065" cy="189.68677803135182" r="5"/>
<circle cx="158.4554792821958" cy="-403.09509794079463" r="5"/>
<circle cx="155.86066060893924" cy="405.34152467162716" r="5"/>
<circle cx="-389.7608191995418" cy="-194.11672059768952" r="5"/>
<circle cx="419.6242839445667" cy="-120.46060755630488" r="5"/>
<circle cx="-228.64568373767526" cy="373.25185760700566" r="5"/>
<circle cx="-83.7496105340118" cy="-430.7926425607521" r="5"/>
<circle cx="353.66565375099725" cy="261.758292621417" r="5"/>
<circle cx="-438.7265174876699" cy="46.00371183356733" r="5"/>
<circle cx="293.17899885815115" cy="-331.12516293387" r="5"/>
<circle cx="7.509897812133782" cy="443.3304643089916" r="5"/>
<circle cx="-305.77809486414503" cy="-322.64307849534566" r="5"/>
<circle cx="444.53466727209866" cy="31.436113676939165" r="5"/>
<circle cx="-349.89885973402704" cy="277.7959464369083" r="5"/>
<circle cx="70.53217461312728" cy="-442.29572968141844" r="5"/>
<circle cx="247.3728339716538" cy="374.7098629780549" r="5"/>
<circle cx="-436.5972567590328" cy="-109.47207881835602" r="5"/>
<circle cx="396.85683517909234" cy="-214.72413295222537" r="5"/>
<circle cx="-147.947985876064" cy="427.4502247347535" r="5"/>
<circle cx="-180.08493493331468" cy="-416.13966118451646" r="5"/>
<circle cx="414.8931316287856" cy="185.6528776455797" r="5"/>
<circle cx="-432.37913568613493" cy="143.70833282820234" r="5"/>
<circle cx="222.2830276689667" cy="-398.99192693761734" r="5"/>
<circle cx="105.86354726011555" cy="445.41858039680596" r="5"/>
<circle cx="-379.8397192138877" cy="-257.5404635369763" r="5"/>
<circle cx="455.12529224222857" cy="-66.83390803235102" r="5"/>
<circle cx="-291.1354022110958" cy="357.5562623293839" r="5"/>
<circle cx="-26.914706038538068" cy="-461.39180963749226" r="5"/>
<circle cx="332.2872230124598" cy="322.7886383912757" r="5"/>
<circle cx="-464.13698531263947" cy="-13.589067916736438" r="5"/>
<circle cx="352.23386627381365" cy="-304.2032340424361" r="5"/>
<circle cx="-54.36507989517569" cy="463.30685564773614" r="5"/>
<circle cx="-273.4987392493241" cy="-379.2199154598245" r="5"/>
<circle cx="458.87529806412283" cy="95.09608682282163" r="5"/>
<circle cx="-403.5128823491484" cy="240.3906381930432" r="5"/>
<circle cx="135.46242859063423" cy="-450.844469682205" r="5"/>
<circle cx="205.116740067994" cy="424.89813908359895" r="5"/>
<circle cx="-439.2450221842427" cy="-175.1445585489758" r="5"/>
<circle cx="443.18220298197315" cy="-167.93403798254153" r="5"/>
<circle cx="-213.82559225340694" cy="424.1360895994131" r="5"/>
<circle cx="-129.11681628535385" cy="-458.19445043088507" r="5"/>
<circle cx="405.6050475437989" cy="251.19385404592282" r="5"/>
<circle cx="-469.7886603526714" cy="88.95460503885748" r="5"/>
<circle cx="286.9454009461874" cy="-383.76704428537585" r="5"/>
<circle cx="47.74999706235238" cy="477.84437365566237" r="5"/>
<circle cx="-358.7643058488065" cy="-320.7865033831318" r="5"/>
<circle cx="482.26805647331827" cy="-5.816344171841425" r="5"/>
<circle cx="-352.43606251921403" cy="330.7652192116861" r="5"/>
<circle cx="36.524649678003755" cy="-482.99405650610885" r="5"/>
<circle cx="299.963199459218" cy="381.6279443052377" r="5"/>
<circle cx="-479.9853433825056" cy="-78.94541970599364" r="5"/>
<circle cx="408.11321095411444" cy="-266.5753485403796" r="5"/>
<circle cx="-121.11509663013392" cy="473.23402563964135" r="5"/>
<circle cx="-230.84091499532204" cy="-431.6622312283934" r="5"/>
<circle cx="462.7616386778836" cy="162.70210792499748" r="5"/>
<circle cx="-452.0666517992012" cy="193.01956568250358" r="5"/>
<circle cx="203.37680344438976" cy="-448.6191998522463" r="5"/>
<circle cx="153.38948211401018" cy="469.1412129436599" r="5"/>
<circle cx="-430.8870287132374" cy="-242.8140845219971" r="5"/>
<circle cx="482.7253929980196" cy="-112.24529549433402" r="5"/>
<circle cx="-280.6960155081974" cy="409.674332285597" r="5"/>
<circle cx="-69.89587593939453" cy="-492.6848672656973" r="5"/>
<circle cx="385.11855716046705" cy="316.7143967152711" r="5"/>
<circle cx="-498.91276848351754" cy="26.661992617115725" r="5"/>
<circle cx="350.5732779265977" cy="-357.3845120596703" r="5"/>
<circle cx="-17.12613731235311" cy="501.3307374650109" r="5"/>
<circle cx="-326.6632663948096" cy="-381.99139197742653" r="5"/>
<circle cx="499.8897541549849" cy="61.131392079454734" r="5"/>
<circle cx="-410.70448843347896" cy="293.17083217370504" r="5"/>
<circle cx="105.01236128079499" cy="-494.57074103224636" r="5"/>
<circle cx="257.14663838739267" cy="436.4675480756182" r="5"/>
<circle cx="-485.38493257404656" cy="-148.4260140180684" r="5"/>
<circle cx="459.0568597394412" cy="-218.85180872794191" r="5"/>
<circle cx="-191.0303982320584" cy="472.3740063326462" r="5"/>
<circle cx="-178.56725512659483" cy="-478.2719420519381" r="5"/>
<circle cx="455.6099730568593" cy="232.4873498899063" r="5"/>
<circle cx="-493.9372937460865" cy="136.59160114963612" r="5"/>
<circle cx="272.4651904794911" cy="-435.19482520467614" r="5"/>
<circle cx="93.23895073308884" cy="505.90395750999187" r="5"/>
<circle cx="-411.25994512183996" cy="-310.64139123205274" r="5"/>
<circle cx="514.0508837303693" cy="-48.836519064687664" r="5"/>
<circle cx="-346.70518263424026" cy="383.96527609018534" r="5"/>
<circle cx="-3.7221436213967967" cy="-518.2860820101587" r="5"/>
<circle cx="353.49826136314164" cy="380.3600881032871" r="5"/>
<circle cx="-518.5475499652682" cy="-41.75830556724178" r="5"/>
<circle cx="411.3263611823563" cy="-320.0725581886649" r="5"/>
<circle cx="-87.25359644460899" cy="514.8039705233059" r="5"/>
<circle cx="-283.9265356567255" cy="-439.3433062642184" r="5"/>
<circle cx="507.05517074441843" cy="132.40986549603616" r="5"/>
<circle cx="-464.1714636659227" cy="245.32156698441693" r="5"/>
<circle cx="176.87338701791546" cy="-495.33233704694715" r="5"/>
<circle cx="204.54012855223934" cy="485.5946408492769" r="5"/>
<circle cx="-479.69798363399354" cy="-220.29335931278277" r="5"/>
<circle cx="503.42177270474474" cy="-161.88371961617153" r="5"/>
<circle cx="-262.32468577731265" cy="460.2456728660403" r="5"/>
<circle cx="-117.67061812850865" cy="-517.488595081534" r="5"/>
<circle cx="437.0994882941622" cy="302.6307287657877" r="5"/>
<circle cx="-527.6591171448827" cy="72.23348949302019" r="5"/>
<circle cx="340.88601420376574" cy="-410.4132630420835" r="5"/>
<circle cx="25.916866347187575" cy="533.8268796617939" r="5"/>
<circle cx="-380.36956818888007" cy="-376.7788651936774" r="5"/>
<circle cx="535.9159879484237" cy="20.925481409527798" r="5"/>
<circle cx="-410.013943298904" cy="347.1784677389479" r="5"/>
<circle cx="67.93326613958975" cy="-533.8819099415274" r="5"/>
<circle cx="311.0760486604787" cy="440.31467680638826" r="5"/>
<circle cx="-527.7120316715112" cy="-114.74247051803327" r="5"/>
<circle cx="467.425556052401" cy="-272.3227363087491" r="5"/>
<circle cx="-160.98818242245835" cy="517.4259643002263" r="5"/>
<circle cx="-231.20140731373928" cy="-491.11427684193563" r="5"/>
<circle cx="503.07559882861483" cy="206.30745448283403" r="5"/>
<circle cx="-511.17371409442825" cy="188.01531368744614" r="5"/>
<circle cx="250.34216579345863" cy="-484.7449065622521" r="5"/>
<circle cx="143.0858334812137" cy="527.4237090985932" r="5"/>
<circle cx="-462.54948543117575" cy="-292.74186314876596" r="5"/>
<circle cx="539.712655147896" cy="-96.75006478442069" r="5"/>
<circle cx="-333.1665592034187" cy="436.63585427820897" r="5"/>
<circle cx="-49.35828119074856" cy="-547.9188678451641" r="5"/>
<circle cx="407.18049924128707" cy="371.2894651758554" r="5"/>
<circle cx="-551.951727998574" cy="1.2712680557709457" r="5"/>
<circle cx="406.7996361122334" cy="-374.38867834399207" r="5"/>
<circle cx="-47.14244008042422" cy="551.7525867692831" r="5"/>
<circle cx="-338.4929923586723" cy="-439.4045073022448" r="5"/>
<circle cx="547.2954245599668" cy="95.50939963850372" r="5"/>
<circle cx="-468.8323011858124" cy="299.75173190245715" r="5"/>
<circle cx="143.45415371705707" cy="-538.5872570393352" r="5"/>
<circle cx="258.4470125528316" cy="494.83428500506454" r="5"/>
<circle cx="-525.6682836655308" cy="-190.60216082777512" r="5"/>
<circle cx="517.1868605327602" cy="-214.88271151136" r="5"/>
<circle cx="-236.58273371311012" cy="508.61177608581164" r="5"/>
<circle cx="-169.3822209873915" cy="-535.6934684386545" r="5"/>
<circle cx="487.5237058352699" cy="281.03196510935834" r="5"/>
<circle cx="-550.186291230119" cy="122.28603500463188" r="5"/>
<circle cx="323.5956172991291" cy="-462.5421128174471" r="5"/>
<circle cx="73.94918773961922" cy="560.5277402123895" r="5"/>
<circle cx="-433.8362181082549" cy="-363.93195246173315" r="5"/>
<circle cx="566.6117135457483" cy="-24.738562770669386" r="5"/>
<circle cx="-401.71448117768284" cy="401.6052866652502" r="5"/>
<circle cx="24.969906261972127" cy="-568.3646142193637" r="5"/>
<circle cx="366.0772475307646" cy="436.6346069723311" r="5"/>
<circle cx="-565.7461186010789" cy="-74.79412211879908" r="5"/>
<circle cx="468.4041454903191" cy="-327.50708107355" r="5"/>
<circle cx="-124.34877528064311" cy="558.7496881450244" r="5"/>
<circle cx="-286.1749847037357" cy="-496.75769777216306" r="5"/>
<circle cx="547.402818829624" cy="173.24833723181828" r="5"/>
<circle cx="-521.4548581508059" cy="242.38433030469642" r="5"/>
<circle cx="221.11007236412118" cy="-531.7670249419301" r="5"/>
<circle cx="196.459428338251" cy="542.2822384917201" r="5"/>
<circle cx="-511.937555904296" cy="-267.5570448921951" r="5"/>
<circle cx="559.0552918565614" cy="-148.7431151818741" r="5"/>
<circle cx="-312.2210970899415" cy="488.0428469396021" r="5"/>
<circle cx="-99.59418173732351" cy="-571.6199201665006" r="5"/>
<circle cx="460.24370647608623" cy="354.7457752621767" r="5"/>
<circle cx="-579.8538520680415" cy="49.3846626918473" r="5"/>
<circle cx="394.7891801605644" cy="-428.7322452832398" r="5"/>
<circle cx="-1.5029929876609345" cy="583.6677789459196" r="5"/>
<circle cx="-393.7305543931174" cy="-432.0267190290403" r="5"/>
<circle cx="583.0062388745098" cy="52.67884870830032" r="5"/>
<circle cx="-466.1537371260509" cy="355.48914087687064" r="5"/>
<circle cx="103.74848155864663" cy="-577.8482402347171" r="5"/>
<circle cx="314.2851325004299" cy="496.88800740951314" r="5"/>
<circle cx="-568.207618733613" cy="-154.31603507546205" r="5"/>
<circle cx="523.9720580817703" cy="-270.42026415935055" r="5"/>
<circle cx="-203.98729975413713" cy="554.1331236333017" r="5"/>
<circle cx="-224.2186607759521" cy="-547.1753188682288" r="5"/>
<circle cx="535.7082311075686" cy="252.37279725127738" r="5"/>
<circle cx="-566.2960682362558" cy="176.02443301745757" r="5"/>
<circle cx="299.0908440800072" cy="-513.0506847832809" r="5"/>
<circle cx="126.1991037481886" cy="581.1631652405058" r="5"/>
<circle cx="-486.3117656714727" cy="-343.7705706409861" r="5"/>
<circle cx="591.637551296023" cy="-75.11888454912962" r="5"/>
<circle cx="-386.0548716653108" cy="455.67529583362887" r="5"/>
<circle cx="-23.171822912567034" cy="-597.6135089191162" r="5"/>
<circle cx="421.3563822449361" cy="425.6032645684172" r="5"/>
<circle cx="-599.0196663249034" cy="-29.245158162702676" r="5"/>
<circle cx="462.0946328242864" cy="-383.5999093913774" r="5"/>
<circle cx="-81.72930549841489" cy="595.8197387154581" r="5"/>
<circle cx="-342.6787911549195" cy="-495.22983226269616" r="5"/>
<circle cx="588.0129991187283" cy="133.87514253160933" r="5"/>
<circle cx="-524.7341391634812" cy="298.8919944845387" r="5"/>
<circle cx="185.27761352651623" cy="-575.6344737301869" r="5"/>
<circle cx="252.56234920474523" cy="550.3595201638796" r="5"/>
<circle cx="-558.754858850306" cy="-235.53524074357765" r="5"/>
<circle cx="571.8867052997717" cy="-204.0341600626169" r="5"/>
<circle cx="-284.2532698870303" cy="537.4801586847107" r="5"/>
<circle cx="-153.67063874486715" cy="-589.1270469593806" r="5"/>
<circle cx="511.9510454632974" cy="331.0467791272066" r="5"/>
<circle cx="-601.9241491279431" cy="101.85117509477966" r="5"/>
<circle cx="375.543727162785" cy="-482.34194552246294" r="5"/>
<circle cx="48.96846811256928" cy="610.1552530320002" r="5"/>
<circle cx="-448.8598571636412" cy="-417.38791615114656" r="5"/>
<circle cx="613.7323671391783" cy="4.574461479429516" r="5"/>
<circle cx="-456.2418458897431" cy="411.7429082344115" r="5"/>
<circle cx="58.36735429348167" cy="-612.6031314196127" r="5"/>
<circle cx="371.2586634585439" cy="491.78943637438664" r="5"/>
<circle cx="-606.7514078135433" cy="-111.99586728477773" r="5"/>
<circle cx="523.7385967865937" cy="-327.70219355189136" r="5"/>
<circle cx="-165.0447763663442" cy="596.1975909604297" r="5"/>
<circle cx="-281.393920085935" cy="-551.8236200649914" r="5"/>
<circle cx="580.9986354118745" cy="217.1012017991295" r="5"/>
<circle cx="-575.8073834876857" cy="232.677251883971" r="5"/>
<circle cx="267.75783123302955" cy="-561.2477977566782" r="5"/>
<circle cx="181.91603044383336" cy="595.4833371228955" r="5"/>
<circle cx="-537.0740943151148" cy="-316.6161151760692" r="5"/>
<circle cx="610.6772635863207" cy="-129.4918034565713" r="5"/>
<circle cx="-363.28940977189063" cy="508.6414772916462" r="5"/>
<circle cx="-75.8009469274072" cy="-621.2487942594902" r="5"/>
<circle cx="476.1477344960337" cy="407.4060420617023" r="5"/>
<circle cx="-627.0926689651963" cy="21.25165768402486" r="5"/>
<circle cx="448.61227340286524" cy="-439.8231199319222" r="5"/>
<circle cx="-33.73916082784808" cy="628.1397280471081" r="5"/>
<circle cx="-399.9287246938645" cy="-486.575137403594" r="5"/>
<circle cx="624.3576278471895" cy="88.7490956221113" r="5"/>
<circle cx="-520.9851296096556" cy="356.75459969066674" r="5"/>
<circle cx="143.35347952727818" cy="-615.7512727005804" r="5"/>
<circle cx="310.6176437084242" cy="551.5587272377386" r="5"/>
<circle cx="-602.3629587568023" cy="-197.12867965611568" r="5"/>
<circle cx="578.0407184838315" cy="-261.85927222466944" r="5"/>
<circle cx="-249.6553934555498" cy="584.272227171562" r="5"/>
<circle cx="-210.8428841703216" cy="-600.2063223345187" r="5"/>
<circle cx="561.5954264776751" cy="300.5219266294409" r="5"/>
<circle cx="-617.8630813642492" cy="157.95114549414723" r="5"/>
<circle cx="349.3274272547142" cy="-534.4849862190382" r="5"/>
<circle cx="103.58310990165072" cy="630.8525117007863" r="5"/>
<circle cx="-503.1284062003254" cy="-395.6850506407003" r="5"/>
<circle cx="639.0514961714308" cy="-48.15119850423069" r="5"/>
<circle cx="-439.22502991141613" cy="467.74696794931646" r="5"/>
<circle cx="7.921938686272969" cy="-642.3734085903924" r="5"/>
<circle cx="428.59417719075674" cy="479.5976279183328" r="5"/>
<circle cx="-640.768959198044" cy="-64.206655457935" r="5"/>
<circle cx="516.4759469128045" cy="-385.9539482729583" r="5"/>
<circle cx="-120.26961149317391" cy="634.2267534000513" r="5"/>
<circle cx="-340.1385435539045" cy="-549.5585734171037" r="5"/>
<circle cx="622.7735581620894" cy="175.6771184060953" r="5"/>
<circle cx="-578.5720369237478" cy="291.4862827259099" r="5"/>
<circle cx="229.99850381792376" cy="-606.4742726770075" r="5"/>
<circle cx="240.35903892106137" cy="603.2730624158993" r="5"/>
<circle cx="-585.4316022183585" cy="-282.8094673130382" r="5"/>
<circle cx="623.4505982270606" cy="-187.13954017867036" r="5"/>
<circle cx="-333.6954020692578" cy="559.7854364092777" r="5"/>
<circle cx="-132.22849645667367" cy="-638.9276024347529" r="5"/>
<circle cx="529.7119354507074" cy="382.2546561121326" r="5"/>
<circle cx="-649.5625727978116" cy="76.0415738182202" r="5"/>
<circle cx="428.1017075036807" cy="-495.42233014976455" r="5"/>
<circle cx="19.006238710621577" cy="655.250807186675" r="5"/>
<circle cx="-457.1614438495426" cy="-470.8702283392324" r="5"/>
<circle cx="655.9253835058514" cy="38.441503634306045" r="5"/>
<circle cx="-510.2160131882061" cy="415.2059465679916" r="5"/>
<circle cx="95.86045172111832" cy="-651.5578502520232" r="5"/>
<circle cx="369.86235378819845" cy="545.8197485705268" r="5"/>
<circle cx="-642.1586210735129" cy="-152.8076055385635" r="5"/>
<circle cx="577.3896012032984" cy="-321.46478438840813" r="5"/>
<circle cx="-208.8415933011926" cy="627.7770689800116" r="5"/>
<circle cx="-270.3724941410959" cy="-604.6636040740033" r="5"/>
<circle cx="608.5013181778992" cy="263.5261006157153" r="5"/>
<circle cx="-627.4118208873008" cy="216.9672030307154" r="5"/>
<circle cx="316.43327537358135" cy="-584.4577338581142" r="5"/>
<circle cx="161.65023632468248" cy="645.438271081375" r="5"/>
<circle cx="-555.8101126220294" cy="-367.147081750015" r="5"/>
<circle cx="658.5825994044645" cy="-104.83950086798818" r="5"/>
<circle cx="-415.2665769768852" cy="522.7585785777371" r="5"/>
<circle cx="-46.96631944597555" cy="-666.7214759691929" r="5"/>
<circle cx="485.5381924561082" cy="460.4090850509151" r="5"/>
<circle cx="-669.7697147470283" cy="-11.527852739120998" r="5"/>
<circle cx="502.2132422367407" cy="-444.41728336471834" r="5"/>
<circle cx="-70.19480441434715" cy="667.6811006120903" r="5"/>
<circle cx="-399.6955150002906" cy="-540.3418901215398" r="5"/>
<circle cx="660.4489172761644" cy="128.58301151525836" r="5"/>
<circle cx="-574.4847930681017" cy="351.70170025920584" r="5"/>
<circle cx="186.2411208814238" cy="-648.1061707580571" r="5"/>
<circle cx="300.79138020397033" cy="604.3611581885094" r="5"/>
<circle cx="-630.7255053825622" cy="-242.7214474289457" r="5"/>
<circle cx="629.7219374117668" cy="-247.34418524514962" r="5"/>
<circle cx="-297.58345764699334" cy="608.4188116891204" r="5"/>
<circle cx="-191.76099816785546" cy="-650.3518928350512" r="5"/>
<circle cx="581.3365280292828" cy="350.39721226266914" r="5"/>
<circle cx="-666.0714083177546" cy="134.46094025522635" r="5"/>
<circle cx="400.7467411289123" cy="-549.6666400259326" r="5"/>
<circle cx="75.87820322387294" cy="676.7380321871109" r="5"/>
<circle cx="-513.6333844398894" cy="-448.2333238079431" r="5"/>
<circle cx="682.2477379583976" cy="-16.458750981356825" r="5"/>
<circle cx="-492.4786499567615" cy="473.49566631607854" r="5"/>
<circle cx="43.343083679950915" cy="-682.535892118927" r="5"/>
<circle cx="429.5452005528449" cy="533.1278344502451" r="5"/>
<circle cx="-677.5779202623831" cy="-103.06808141524833" r="5"/>
<circle cx="569.8522632128324" cy="-382.10439122712893" r="5"/>
<circle cx="-162.25567093350094" cy="667.3896651761147" r="5"/>
<circle cx="-331.5239641036706" cy="-602.3522469527943" r="5"/>
<circle cx="652.0274328576697" cy="220.4474886118099" r="5"/>
<circle cx="-630.3594613998038" cy="278.1803697389367" r="5"/>
<circle cx="277.1909355509918" cy="-631.5877248512934" r="5"/>
<circle cx="222.4729764447836" cy="653.6391542253194" r="5"/>
<circle cx="-606.2066577311888" cy="-332.0427044178183" r="5"/>
<circle cx="671.992100564679" cy="-164.82107408797177" r="5"/>
<circle cx="-384.5722485471033" cy="576.0590729971991" r="5"/>
<circle cx="-105.66071125561606" cy="-685.2562909467157" r="5"/>
<circle cx="541.3573430711352" cy="434.3651661196819" r="5"/>
<circle cx="-693.3083374570082" cy="45.44138970082257" r="5"/>
<circle cx="481.0264727884094" cy="-502.3498814692896" r="5"/>
<circle cx="-15.377358814330707" cy="696.064586099227" r="5"/>
<circle cx="-459.31936755998225" cy="-524.1837368900487" r="5"/>
<circle cx="693.4819255592089" cy="76.32948714969059" r="5"/>
<circle cx="-563.4900523510894" cy="412.5806985758477" r="5"/>
<circle cx="136.946011951287" cy="-685.5582849012409" r="5"/>
<circle cx="362.4786837211138" cy="598.6268255633277" r="5"/>
<circle cx="-672.3328151177362" cy="-196.75862980363294" r="5"/>
<circle cx="629.3063538620105" cy="-309.3854972770544" r="5"/>
<circle cx="-255.303342432341" cy="653.8857518936073" r="5"/>
<circle cx="-253.69790954765088" cy="-655.2741747756204" r="5"/>
<circle cx="630.3379594163208" cy="312.1240628431458" r="5"/>
<circle cx="-676.3111669205896" cy="195.83431628669874" r="5"/>
<circle cx="366.776174325601" cy="-601.8501575426976" r="5"/>
<circle cx="136.23158889260466" cy="692.2353852736907" r="5"/>
<circle cx="-568.6218371046785" cy="-418.8300145107129" r="5"/>
<circle cx="702.9036155556055" cy="-75.34176913456717" r="5"/>
<circle cx="-467.8742571503235" cy="530.8898705792254" r="5"/>
<circle cx="-13.62863347159829" cy="-708.2126345861218" r="5"/>
<circle cx="488.9268277430894" cy="513.5191649791888" r="5"/>
<circle cx="-708.1001657083989" cy="-48.435846866831355" r="5"/>
<circle cx="555.399687923787" cy="-443.0390082625391" r="5"/>
<circle cx="-110.37512296215588" cy="702.5455207097316" r="5"/>
<circle cx="-393.56420541287014" cy="-593.1783820286107" r="5"/>
<circle cx="691.5699220713942" cy="171.71173467365287" r="5"/>
<circle cx="-626.5481257731428" cy="340.8692172648572" r="5"/>
<circle cx="231.97099822816082" cy="-675.2365018419472" r="5"/>
<circle cx="285.3471236981598" cy="655.2346119414262" r="5"/>
<circle cx="-653.6499759278969" cy="-290.68468640165645" r="5"/>
<circle cx="678.9985948701427" cy="-227.4143494889151" r="5"/>
<circle cx="-347.39467271473626" cy="626.9559951134057" r="5"/>
<circle cx="-167.5075354551274" cy="-697.6378747280669" r="5"/>
<circle cx="595.3401766373539" cy="401.6565112392354" r="5"/>
<circle cx="-710.9890024559934" cy="106.08024121496977" r="5"/>
<circle cx="453.0429240100263" cy="-559.0268226517986" r="5"/>
<circle cx="43.599504506918095" cy="718.9286911068414" r="5"/>
<circle cx="-518.2773343412749" cy="-501.1471686521558" r="5"/>
<circle cx="721.3749215546724" cy="19.457716774721113" r="5"/>
<circle cx="-545.5862596648342" cy="473.38833287815226" r="5"/>
<circle cx="82.60819266988452" cy="-718.2877328718348" r="5"/>
<circle cx="424.68950070653557" cy="586.0040178446764" r="5"/>
<circle cx="-709.6696900875739" cy="-145.36613141169428" r="5"/>
<circle cx="622.0739235735937" cy="-372.54115886768153" r="5"/>
<circle cx="-207.24692331443893" cy="695.5660245207097" r="5"/>
<circle cx="-317.33159818593845" cy="-653.5017511328708" r="5"/>
<circle cx="676.0644444042921" cy="267.77088938757186" r="5"/>
<circle cx="-680.0279628237082" cy="259.47418410905175" r="5"/>
<circle cx="326.4670056329962" cy="-651.2946160719977" r="5"/>
<circle cx="199.4042568244666" cy="701.4298434638728" r="5"/>
<circle cx="-621.4273185346415" cy="-382.8765740685125" r="5"/>
<circle cx="717.5233577767367" cy="-137.57584993928953" r="5"/>
<circle cx="-436.55681183133976" cy="586.6732768206698" r="5"/>
<circle cx="-74.4582525023213" cy="-728.1647152782614" r="5"/>
<circle cx="547.2816819669903" cy="487.08433025039756" r="5"/>
<circle cx="-733.2516294836252" cy="10.532440449856104" r="5"/>
<circle cx="534.0584765311645" cy="-503.53840800633856" r="5"/>
<circle cx="-53.712595338013955" cy="732.7242605813773" r="5"/>
<circle cx="-455.7639386852511" cy="-577.1045116672568" r="5"/>
<circle cx="726.5658331414882" cy="117.78359628631077" r="5"/>
<circle cx="-615.8765993715681" cy="404.31101894378213" r="5"/>
<circle cx="181.1868299126539" cy="-714.8029229159423" r="5"/>
<circle cx="349.56204837621175" cy="650.0605821984005" r="5"/>
<circle cx="-697.5054093374587" cy="-243.43190092550705" r="5"/>
<circle cx="679.3765225964385" cy="-291.9262359537381" r="5"/>
<circle cx="-304.03555016973155" cy="674.7860929038627" r="5"/>
<circle cx="-231.83653720908575" cy="-703.58098837909" r="5"/>
<circle cx="646.7999792326301" cy="362.5254119484467" r="5"/>
<circle cx="-722.4690640106538" cy="169.74639684369384" r="5"/>
<circle cx="418.44370047155127" cy="-613.7432341620123" r="5"/>
<circle cx="106.12632130645673" cy="735.8760711696336" r="5"/>
<circle cx="-575.851816841762" cy="-471.35079663056035" r="5"/>
<circle cx="743.678984248763" cy="-41.460307295957605" r="5"/>
<circle cx="-520.8287069738972" cy="533.3998002777753" r="5"/>
<circle cx="23.75784665574972" cy="-745.7975287682839" r="5"/>
<circle cx="486.6973912511797" cy="566.4843676519401" r="5"/>
<circle cx="-742.1949530970973" cy="-89.02831736051657" r="5"/>
<circle cx="607.9527672107344" cy="-436.0886639042379" r="5"/>
<circle cx="-153.84909397141556" cy="732.8784663771149" r="5"/>
<circle cx="-381.9490235541787" cy="-644.8998634293794" r="5"/>
<circle cx="717.8993381103045" cy="217.71984529696508" r="5"/>
<circle cx="-677.0252709090929" cy="324.6824194438962" r="5"/>
<circle cx="280.14578759444913" cy="-697.3526574758882" r="5"/>
<circle cx="264.7183271469111" cy="704.0646978213464" r="5"/>
<circle cx="-671.3767530762199" cy="-340.64152290154" r="5"/>
<circle cx="725.7921120929291" cy="-202.5085232025015" r="5"/>
<circle cx="-398.7348180900459" cy="640.1522764458438" r="5"/>
<circle cx="-138.5236762378005" cy="-742.021619339887" r="5"/>
<circle cx="603.900955273714" cy="453.9702951910444" r="5"/>
<circle cx="-752.6090370346833" cy="73.24978034233297" r="5"/>
<circle cx="505.9130041245784" cy="-562.8840248703481" r="5"/>
<circle cx="7.184457765711476" cy="757.4531516954273" r="5"/>
<circle cx="-517.4003489326277" cy="-554.1518497859981" r="5"/>
<circle cx="756.4966482981949" cy="59.16684088719425" r="5"/>
<circle cx="-598.3028464756865" cy="467.7842431037943" r="5"/>
<circle cx="125.29470990192907" cy="-749.7267036179351" r="5"/>
<circle cx="414.4030171738149" cy="638.012173907824" r="5"/>
<circle cx="-737.1752377803062" cy="-190.68970541437858" r="5"/>
<circle cx="672.9590104865349" cy="-357.6542539976038" r="5"/>
<circle cx="-254.84627592194246" cy="718.9188209363009" r="5"/>
<circle cx="-297.962845307849" cy="-702.8581211837136" r="5"/>
<circle cx="695.0782346334361" cy="317.2666759791202" r="5"/>
<circle cx="-727.4621791799185" cy="235.77780654867243" r="5"/>
<circle cx="377.4648327417479" cy="-665.8176901310661" r="5"/>
<circle cx="171.56889464044968" cy="746.5638024242828" r="5"/>
<circle cx="-631.3437085722413" cy="-434.9701352906004" r="5"/>
<circle cx="759.9972884164815" cy="-105.82305419044943" r="5"/>
<circle cx="-489.33111716560444" cy="591.9036705598184" r="5"/>
<circle cx="-39.040719075517046" cy="-767.6400327972194" r="5"/>
<circle cx="547.7840452696413" cy="540.1190032733546" r="5"/>
<circle cx="-769.4136197361403" cy="-28.268002469744705" r="5"/>
<circle cx="586.9310932880009" cy="-499.3083117483391" r="5"/>
<circle cx="-95.58723013295614" cy="765.2845746092489" r="5"/>
<circle cx="-446.8345874678893" cy="-629.3939548421768" r="5"/>
<circle cx="755.2647720427327" cy="162.3992712755779" r="5"/>
<circle cx="-667.1664011919764" cy="390.7529815244813" r="5"/>
<circle cx="228.1886077188334" cy="-739.4114950466961" r="5"/>
<circle cx="331.48269205705583" cy="699.9422296279758" r="5"/>
<circle cx="-717.8271436503745" cy="-292.4458788200727" r="5"/>
<circle cx="727.4526986811899" cy="-269.4688695038428" r="5"/>
<circle cx="-354.67183002655537" cy="690.6585941592014" r="5"/>
<circle cx="-205.1792691969621" cy="-749.4687241254807" r="5"/>
<circle cx="658.0962128626476" cy="414.38119626310413" r="5"/>
<circle cx="-765.802775891641" cy="139.1007185005974" r="5"/>
<circle cx="471.1064899176081" cy="-620.3725307090581" r="5"/>
<circle cx="71.73542521363022" cy="776.3104602672794" r="5"/>
<circle cx="-577.76058810884" cy="-524.4016638314831" r="5"/>
<circle cx="780.8917741436292" cy="-3.597155270601586" r="5"/>
<circle cx="-573.845620576667" cy="530.5719616096676" r="5"/>
<circle cx="64.79269112535675" cy="-779.4920205673756" r="5"/>
<circle cx="479.15448668663146" cy="619.045540400439" r="5"/>
<circle cx="-772.1023774434888" cy="-132.9090749265765" r="5"/>
<circle cx="659.6400015364691" cy="-423.88969328684794" r="5"/>
<circle cx="-200.22735456329974" cy="758.760113894081" r="5"/>
<circle cx="-365.1899730430399" cy="-695.3018681054473" r="5"/>
<circle cx="739.548451488047" cy="266.22733209394147" r="5"/>
<circle cx="-725.7409225502199" cy="303.4954992060125" r="5"/>
<circle cx="330.3972779400724" cy="-714.5960702958467" r="5"/>
<circle cx="239.270922324784" cy="750.7062214558026" r="5"/>
<circle cx="-684.0762624720754" cy="-392.23790303202804" r="5"/>
<circle cx="769.9881556797163" cy="-173.00186650958514" r="5"/>
<circle cx="-451.2662475017543" cy="648.2057388041717" r="5"/>
<circle cx="-105.19125273248773" cy="-783.4201979472264" r="5"/>
<circle cx="607.2430963674637" cy="507.0194556102179" r="5"/>
<circle cx="-790.8803234324074" cy="36.355477039949925" r="5"/>
<circle cx="559.0584073838802" cy="-561.4869580737172" r="5"/>
<circle cx="-32.979527240522195" cy="792.2920913315957" r="5"/>
<circle cx="-511.27379747172984" cy="-606.9711784529503" r="5"/>
<circle cx="787.6253780217778" cy="102.28231323109398" r="5"/>
<circle cx="-650.3763008261935" cy="456.97546463416796" r="5"/>
<circle cx="171.01999934680128" cy="-776.8967550630663" r="5"/>
<circle cx="398.99643132526427" cy="688.9257987939853" r="5"/>
<circle cx="-760.1695080311864" cy="-238.6623719063738" r="5"/>
<circle cx="722.3079758124295" cy="-337.77077587060126" r="5"/>
<circle cx="-304.68597988703885" cy="737.5532949318831" r="5"/>
<circle cx="-273.75893022528123" cy="-750.2499300743965" r="5"/>
<circle cx="709.2034457330371" cy="368.57819016490834" r="5"/>
<circle cx="-772.5197785045085" cy="207.44421364386812" r="5"/>
<circle cx="429.8411717928058" cy="-675.3199073305111" r="5"/>
<circle cx="139.32917907926168" cy="788.9285711091509" r="5"/>
<circle cx="-636.1458410187951" cy="-487.9957783217418" r="5"/>
<circle cx="799.3318799530239" cy="-69.93179996426736" r="5"/>
<circle cx="-542.585297867878" cy="591.9658822459527" r="5"/>
<circle cx="0.21847365335763352" cy="-803.6310495028117" r="5"/>
<circle cx="543.1040750730501" cy="593.1790415590386" r="5"/>
<circle cx="-801.7740976575291" cy="-70.58475955497147" r="5"/>
<circle cx="639.3757421570898" cy="-489.92149631055554" r="5"/>
<circle cx="-140.62685743971463" cy="793.7562594542851" r="5"/>
<circle cx="-432.8135867480528" cy="-680.8067360364754" r="5"/>
<circle cx="779.620168177209" cy="209.80540109305718" r="5"/>
<circle cx="-717.1389032947781" cy="372.20720920982467" r="5"/>
<circle cx="277.58601668276293" cy="-759.4556713850554" r="5"/>
<circle cx="308.55745533907395" cy="748.077342566615" r="5"/>
<circle cx="-733.3992821881168" cy="-343.44345508821897" r="5"/>
<circle cx="773.3677590941351" cy="-242.3442250205677" r="5"/>
<circle cx="-406.86566627544534" cy="701.6332689257733" r="5"/>
<circle cx="-174.06860417928658" cy="-792.7985467610472" r="5"/>
<circle cx="664.3843892004757" cy="467.3577840843027" r="5"/>
<circle cx="-806.2025471062743" cy="104.2490683265765" r="5"/>
<circle cx="524.4459903944103" cy="-621.922276990425" r="5"/>
<circle cx="33.41754065212279" cy="813.4584707805419" r="5"/>
<circle cx="-574.5574942701412" cy="-577.6812284781249" r="5"/>
<circle cx="814.4919694759426" cy="37.88466533182407" r="5"/>
<circle cx="-626.642736426655" cy="522.6392611945096" r="5"/>
<circle cx="109.11098760794918" cy="-809.2763490252091" r="5"/>
<circle cx="466.5528814259442" cy="670.9413728423879" r="5"/>
<circle cx="-797.8329171135334" cy="-179.71381020587708" r="5"/>
<circle cx="710.2227085129501" cy="-406.7168815911855" r="5"/>
<circle cx="-249.14867825841824" cy="780.2309618510008" r="5"/>
<circle cx="-343.5798861133619" cy="-744.1698595195244" r="5"/>
<circle cx="756.587360294875" cy="316.8785010869901" r="5"/>
<circle cx="-772.5060391550124" cy="277.6172507757109" r="5"/>
<circle cx="382.37771083389987" cy="-727.0658188684029" r="5"/>
<circle cx="209.32748030183083" cy="794.9968081382253" r="5"/>
<circle cx="-691.875750472422" cy="-445.1363444135152" r="5"/>
<circle cx="811.452004881897" cy="-139.22845697945422" r="5"/>
<circle cx="-504.6640170534753" cy="651.2707959069747" r="5"/>
<circle cx="-67.8535088916531" cy="-821.7273399924517" r="5"/>
<circle cx="605.5469999899599" cy="560.4937564444983" r="5"/>
<circle cx="-825.7256417286156" cy="-4.252652360145434" r="5"/>
<circle cx="612.1856675062405" cy="-555.0406554571421" r="5"/>
<circle cx="-76.53809346390152" cy="823.3977418048894" r="5"/>
<circle cx="-500.1258303314785" cy="-659.3303990002696" r="5"/>
<circle cx="814.7429936743414" cy="148.44788890146734" r="5"/>
<circle cx="-701.5523846706857" cy="441.2115969393029" r="5"/>
<circle cx="219.4283857030698" cy="-799.8094182420743" r="5"/>
<circle cx="378.73898310687133" cy="738.5128332576751" r="5"/>
<circle cx="-778.6934748244922" cy="-288.9314706413764" r="5"/>
<circle cx="769.9124435970027" cy="-313.1776682744918" r="5"/>
<circle cx="-356.41880694381433" cy="751.5394580580775" r="5"/>
<circle cx="-245.0224492994894" cy="-795.4938230752549" r="5"/>
<circle cx="718.5385243525147" cy="421.36600774509736" r="5"/>
<circle cx="-815.0435899411154" cy="174.7895025673876" r="5"/>
<circle cx="483.26671389900173" cy="-679.9273543543028" r="5"/>
<circle cx="103.01247067810864" cy="828.3941423603246" r="5"/>
<circle cx="-635.9864607161967" cy="-541.6365444169336" r="5"/>
<circle cx="835.425079628165" cy="-30.238403407428187" r="5"/>
<circle cx="-596.0168886964096" cy="587.0381532329333" r="5"/>
<circle cx="42.976416148309866" cy="-836.0642635991886" r="5"/>
<circle cx="533.4441760831247" cy="645.9785108389655" r="5"/>
<circle cx="-830.2885111392876" cy="-116.07072836405199" r="5"/>
<circle cx="691.124937726068" cy="-475.60303449002527" r="5"/>
<circle cx="-188.4826042059069" cy="818.12391122914" r="5"/>
<circle cx="-413.94703055987276" cy="-731.0956041133713" r="5"/>
<circle cx="799.6457632289159" cy="259.6537695921269" r="5"/>
<circle cx="-765.5687298064063" cy="348.93903035643234" r="5"/>
<circle cx="329.03391368437065" cy="-774.9781357297463" r="5"/>
<circle cx="281.06898640604066" cy="794.2639059811373" r="5"/>
<circle cx="-744.2930483454155" cy="-396.08494783132795" r="5"/>
<circle cx="816.9443698958295" cy="-210.85024178190574" r="5"/>
<circle cx="-460.2851821769477" cy="707.8092817153791" r="5"/>
<circle cx="-138.81564367407478" cy="-833.4189495899313" r="5"/>
<circle cx="665.7908238749807" cy="521.1333874913713" r="5"/>
<circle cx="-843.5436626634558" cy="65.51349589820278" r="5"/>
<circle cx="578.1527105806803" cy="-618.5449639782215" r="5"/>
<circle cx="-8.49661888045318" cy="847.222955857744" r="5"/>
<circle cx="-566.4200471106064" cy="-630.8944126762226" r="5"/>
<circle cx="844.4105748954928" cy="82.64811534237104" r="5"/>
<circle cx="-678.9414014881406" cy="509.8029065829529" r="5"/>
<circle cx="156.37174741726773" cy="-835.1100568637063" r="5"/>
<circle cx="449.1159926308556" cy="721.9115291215114" r="5"/>
<circle cx="-819.3748403161007" cy="-229.0999825893645" r="5"/>
<circle cx="759.4606297860945" cy="-384.8142188388008" r="5"/>
<circle cx="-300.27137495850315" cy="797.3079912093337" r="5"/>
<circle cx="-317.3815498438855" cy="-791.2852731692604" r="5"/>
<circle cx="769.0615457475861" cy="369.33490333072587" r="5"/>
<circle cx="-817.1252114717853" cy="247.3273559339897" r="5"/>
<circle cx="435.75424079178083" cy="-734.8354741697026" r="5"/>
<circle cx="175.18256202270206" cy="836.7655004118659" r="5"/>
<circle cx="-694.876272449399" cy="-499.01192265647495" r="5"/>
<circle cx="850.0382769665847" cy="-101.49562014337353" r="5"/>
<circle cx="-558.6133803831381" cy="649.4751917692137" r="5"/>
<circle cx="-26.828336043999563" cy="-856.8241792234675" r="5"/>
<circle cx="598.9661184504578" cy="614.0908099909783" r="5"/>
<circle cx="-857.0533964379977" cy="-48.2484183284896" r="5"/>
<circle cx="665.0068447120974" cy="-543.7231197524104" r="5"/>
<circle cx="-123.15907370144186" cy="850.7063402152129" r="5"/>
<circle cx="-484.1576735730708" cy="-710.9580030408235" r="5"/>
<circle cx="837.8139306332532" cy="197.32778024005358" r="5"/>
<circle cx="-751.5778850003279" cy="420.7156025703915" r="5"/>
<circle cx="270.18283827670456" cy="-818.4574940817654" r="5"/>
<circle cx="353.87373555751685" cy="786.5400913180158" r="5"/>
<circle cx="-792.7682725756556" cy="-341.1611088848201" r="5"/>
<circle cx="815.5608422729864" cy="-284.13632118969093" r="5"/>
<circle cx="-409.7123702423673" cy="760.926547301867" r="5"/>
<circle cx="-212.0312209370568" cy="-838.4012752354479" r="5"/>
<circle cx="723.1603821404448" cy="475.3035860595785" r="5"/>
<circle cx="-854.8694023423798" cy="138.10591011074388" r="5"/>
<circle cx="537.423052936248" cy="-679.7439958481003" r="5"/>
<circle cx="62.92331726525875" cy="864.8217123276451" r="5"/>
<circle cx="-630.9957744798972" cy="-595.584394362062" r="5"/>
<circle cx="868.1644032286648" cy="12.942466374344216" r="5"/>
<circle cx="-649.3303701729972" cy="577.2759384301048" r="5"/>
<circle cx="88.91057472754" cy="-864.8542355050955" r="5"/>
<circle cx="518.9838811748195" cy="698.2364716199883" r="5"/>
<circle cx="-854.8989980062584" cy="-164.397818348147" r="5"/>
<circle cx="741.9142737830674" cy="-456.55519937550105" r="5"/>
<circle cx="-238.8231654438594" cy="838.3575821911315" r="5"/>
<circle cx="-390.4584364338831" cy="-780.0145188634102" r="5"/>
<circle cx="815.3396630148081" cy="311.6122179651085" r="5"/>
<circle cx="-812.2299058938373" cy="321.19156385566595" r="5"/>
<circle cx="382.20164825272417" cy="-786.0049879252589" r="5"/>
<circle cx="249.27822686503498" cy="838.2975646103444" r="5"/>
<circle cx="-750.5622784406972" cy="-450.04356195000133" r="5"/>
<circle cx="858.0011936066049" cy="-175.26378259783635" r="5"/>
<circle cx="-514.6097533660271" cy="709.2677517775231" r="5"/>
<circle cx="-99.71116087329986" cy="-871.1728454321849" r="5"/>
<circle cx="662.4232729474638" cy="575.395820221876" r="5"/>
<circle cx="-877.6943439743964" cy="23.196578987313778" r="5"/>
<circle cx="631.9251057085693" cy="-610.3741506213212" r="5"/>
<circle cx="-53.694856820183404" cy="877.4983222620261" r="5"/>
<circle cx="-553.5065928338388" cy="-683.7524370422461" r="5"/>
<circle cx="870.5688717276477" cy="130.37362962160563" r="5"/>
<circle cx="-730.4676311878743" cy="492.2448412718631" r="5"/>
<circle cx="206.25033547350074" cy="-856.941796937913" r="5"/>
<circle cx="427.0480054115625" cy="771.6987401481503" r="5"/>
<circle cx="-836.7044728294127" cy="-280.74021776299867" r="5"/>
<circle cx="807.1150101521338" cy="-358.40662013920337" r="5"/>
<circle cx="-353.2676773174592" cy="809.9953045452418" r="5"/>
<circle cx="-286.83895268132767" cy="-836.4295312203027" r="5"/>
<circle cx="777.0027930321208" cy="423.2707234656615" r="5"/>
<circle cx="-859.4015559114947" cy="212.88708666776512" r="5"/>
<circle cx="490.2053316073718" cy="-737.9642126057457" r="5"/>
<circle cx="137.11281293870928" cy="875.8384685552875" r="5"/>
<circle cx="-693.1639096994865" cy="-553.5496734833143" r="5"/>
<circle cx="885.5973889218652" cy="-60.093358270789174" r="5"/>
<circle cx="-612.8081872351933" cy="642.9312349552852" r="5"/>
<circle cx="17.58301547594286" cy="-888.5863970602462" r="5"/>
<circle cx="587.6381236727137" cy="667.5154554991775" r="5"/>
<circle cx="-884.7653689237611" cy="-95.32150820873434" r="5"/>
<circle cx="717.2398611778677" cy="-527.6963423804119" r="5"/>
<circle cx="-172.52534004620543" cy="874.1464153768396" r="5"/>
<circle cx="-463.55442191201394" cy="-761.5869921750113" r="5"/>
<circle cx="856.7939202167228" cy="248.60033639186315" r="5"/>
<circle cx="-800.2027682419995" cy="395.6942998356852" r="5"/>
<circle cx="322.959504381993" cy="-832.8241759243513" r="5"/>
<circle cx="324.6276973831138" cy="832.7762651616578" r="5"/>
<circle cx="-802.4046189567155" cy="-395.02756543299085" r="5"/>
<circle cx="859.0422137674566" cy="-250.8922581320917" r="5"/>
<circle cx="-464.245408865415" cy="765.7526694844892" r="5"/>
<circle cx="-175.04747759995553" cy="-878.7831537479856" r="5"/>
<circle cx="723.1341835399627" cy="530.0744321050389" r="5"/>
<circle cx="-891.8312247988378" cy="97.67045458795523" r="5"/>
<circle cx="592.0007337515875" cy="-674.8615285473901" r="5"/>
<circle cx="19.351496565563018" cy="898.0695804371373" r="5"/>
<circle cx="-621.2912961375782" cy="-649.5391268581716" r="5"/>
<circle cx="897.4334126669473" cy="59.310387412911574" r="5"/>
<circle cx="-702.2369410711904" cy="562.8216689780304" r="5"/>
<circle cx="137.7120718191455" cy="-889.9105786547555" r="5"/>
<circle cx="499.88946105716883" cy="749.6775838321842" r="5"/>
<circle cx="-875.5418236205182" cy="-215.25094266430207" r="5"/>
<circle cx="791.4838326283623" cy="-432.9668534248977" r="5"/>
<circle cx="-291.32953287522497" cy="854.4205972479635" r="5"/>
<circle cx="-362.5578497919051" cy="-827.3208322841018" r="5"/>
<circle cx="826.6924640442481" cy="365.36012935125143" r="5"/>
<circle cx="-856.8987734966345" cy="289.19447860773926" r="5"/>
<circle cx="436.7693161523398" cy="-792.5541112095633" r="5"/>
<circle cx="213.4327702552835" cy="879.9752312188361" r="5"/>
<circle cx="-752.2519606877336" cy="-505.0024186764599" r="5"/>
<circle cx="896.3571440624231" cy="-135.848539800748" r="5"/>
<circle cx="-569.5278143634299" cy="706.0803951351988" r="5"/>
<circle cx="-57.03300730930707" cy="-905.9024186165117" r="5"/>
<circle cx="654.3796105442696" cy="629.8410764089973" r="5"/>
<circle cx="-908.5211454287546" cy="-22.411710935644866" r="5"/>
<circle cx="685.4689181802539" cy="-597.5331111638556" r="5"/>
<circle cx="-101.87720589776045" cy="904.1764163574244" r="5"/>
<circle cx="-535.9648651543977" cy="-735.9729074827704" r="5"/>
<circle cx="892.8847360502782" cy="180.75343871463275" r="5"/>
<circle cx="-780.9529215304108" cy="470.1361420716135" r="5"/>
<circle cx="258.4334273220885" cy="-874.7160234164847" r="5"/>
<circle cx="400.54205577511334" cy="820.0503153981226" r="5"/>
<circle cx="-849.793202107484" cy="-334.31792074483315" r="5"/>
<circle cx="852.9507788817053" cy="-327.707838683265" r="5"/>
<circle cx="-407.82002503278034" cy="818.2913821871474" r="5"/>
<circle cx="-252.18487542656138" cy="-879.3868590306001" r="5"/>
<circle cx="780.4366383266621" cy="478.3697451105356" r="5"/>
<circle cx="-899.1401281425146" cy="174.5465258712626" r="5"/>
<circle cx="545.4184073718129" cy="-736.5043929807787" r="5"/>
<circle cx="95.38376917797241" cy="912.0429796931274" r="5"/>
<circle cx="-686.8174160653105" cy="-608.4429286873261" r="5"/>
<circle cx="917.9800374998853" cy="-15.300702012473405" r="5"/>
<circle cx="-666.9498985980703" cy="631.7434556372658" r="5"/>
<circle cx="65.09007477316197" cy="-916.8891663645284" r="5"/>
<circle cx="571.6925169555618" cy="720.4794428280069" r="5"/>
<circle cx="-908.7620754819986" cy="-145.17214573228463" r="5"/>
<circle cx="768.6088378610425" cy="-507.1138100494682" r="5"/>
<circle cx="-224.33001076207043" cy="893.644509020564" r="5"/>
<circle cx="-438.49238852227637" cy="-810.9558481750223" r="5"/>
<circle cx="871.636021445429" cy="301.9538190686606" r="5"/>
<circle cx="-847.181759796478" cy="366.34550474877284" r="5"/>
<circle cx="377.4440707243579" cy="-842.8893383515073" r="5"/>
<circle cx="291.2187088678023" cy="876.9940861186642" r="5"/>
<circle cx="-807.6093067658038" cy="-450.2162495480629" r="5"/>
<circle cx="900.1489243948154" cy="-213.6817210077825" r="5"/>
<circle cx="-519.7053514859454" cy="766.0514420513717" r="5"/>
<circle cx="-134.3241079973416" cy="-916.4529439600047" r="5"/>
<circle cx="718.5200816685519" cy="585.3702733923064" r="5"/>
<circle cx="-925.7649900284348" cy="53.750797390765264" r="5"/>
<circle cx="646.6980281057246" cy="-665.3661591009749" r="5"/>
<circle cx="-27.422537034011874" cy="927.9972898372923" r="5"/>
<circle cx="-606.9846142098926" cy="-703.2077529758432" r="5"/>
<circle cx="923.1162509411475" cy="108.57418307936621" r="5"/>
<circle cx="-754.4544805124118" cy="543.81145911783" r="5"/>
<circle cx="189.08115520971452" cy="-911.1428445791589" r="5"/>
<circle cx="476.3205214191177" cy="800.0326415893207" r="5"/>
<circle cx="-892.1525702171738" cy="-268.3239803640042" r="5"/>
<circle cx="839.5792736293222" cy="-405.01988904950883" r="5"/>
<circle cx="-345.69146770962357" cy="866.2750005838262" r="5"/>
<circle cx="-330.44808349987983" cy="-872.7769084050766" r="5"/>
<circle cx="833.6929097491912" cy="420.5854255890459" r="5"/>
<circle cx="-899.3561165025075" cy="253.16999021140995" r="5"/>
<circle cx="492.42528923447395" cy="-794.6409900115818" r="5"/>
<circle cx="173.77257692460412" cy="919.0976880850859" r="5"/>
<circle cx="-749.4041665378455" cy="-560.6526234311309" r="5"/>
<circle cx="931.834432352969" cy="-92.86043245665783" r="5"/>
<circle cx="-624.7354651925999" cy="698.3155218204217" r="5"/>
<circle cx="-11.051159837323254" cy="-937.4525809880292" r="5"/>
<circle cx="641.7538450462858" cy="684.1724726655552" r="5"/>
<circle cx="-935.892783892686" cy="-71.02934106913523" r="5"/>
<circle cx="738.4968478980414" cy="-580.1408243951633" r="5"/>
<circle cx="-152.7516653989177" cy="927.1506886440977" r="5"/>
<circle cx="-513.9379030742812" cy="-787.2800027748093" r="5"/>
<circle cx="911.2770982718916" cy="233.48773287001384" r="5"/>
<circle cx="-830.1349393327731" cy="443.6428225326269" r="5"/>
<circle cx="312.6156180271152" cy="-888.3777052027999" r="5"/>
<circle cx="369.78587875855266" cy="866.719317805227" r="5"/>
<circle cx="-858.6124024744807" cy="-389.52434398008836" r="5"/>
<circle cx="896.7381880890658" cy="-292.92591983124714" r="5"/>
<circle cx="-463.61860266491766" cy="822.1941765783781" r="5"/>
<circle cx="-213.64611495119775" cy="-919.9463628672885" r="5"/>
<circle cx="779.3875895225781" cy="534.3233651402526" r="5"/>
<circle cx="-936.1504133303366" cy="132.54952700097823" r="5"/>
<circle cx="601.0883461990943" cy="-730.5068608853076" r="5"/>
<circle cx="50.254522270962354" cy="945.2102713038571" r="5"/>
<circle cx="-675.9135637333483" cy="-663.3922886184339" r="5"/>
<circle cx="947.0404245854759" cy="32.609947687862096" r="5"/>
<circle cx="-720.7470336823573" cy="616.0139512831277" r="5"/>
<circle cx="115.40915606069447" cy="-941.6106953963788" r="5"/>
<circle cx="551.2559340622389" cy="772.7013461867316" r="5"/>
<circle cx="-928.9465950411626" cy="-197.50746580616675" r="5"/>
<circle cx="818.8444639545106" cy="-482.1257300631436" r="5"/>
<circle cx="-278.27321242084366" cy="909.1292511172314" r="5"/>
<circle cx="-409.14421294746705" cy="-858.8093439464412" r="5"/>
<circle cx="882.2949068979858" cy="357.08356690012863" r="5"/>
<circle cx="-892.2755793271813" cy="332.862985738445" r="5"/>
<circle cx="433.3293414357088" cy="-848.6339958070199" r="5"/>
<circle cx="253.8602096119841" cy="918.9719643244722" r="5"/>
<circle cx="-808.3897971781023" cy="-506.4197007493794" r="5"/>
<circle cx="938.6786863803925" cy="-172.73621934629128" r="5"/>
<circle cx="-575.7867426093377" cy="761.8566827326008" r="5"/>
<circle cx="-90.10895870057601" cy="-951.2291279187247" r="5"/>
<circle cx="709.3779663771697" cy="640.8899120034856" r="5"/>
<circle cx="-956.5112630196634" cy="6.609270451273522" r="5"/>
<circle cx="701.2202146483413" cy="-651.3433730053825" r="5"/>
<circle cx="-77.12392299221158" cy="954.4686373799356" r="5"/>
<circle cx="-588.1861449536175" cy="-756.304196983163" r="5"/>
<circle cx="945.1009231193204" cy="160.44851155083452" r="5"/>
<circle cx="-805.7076615260402" cy="520.3798075907972" r="5"/>
<circle cx="242.7241245393068" cy="-928.4640432492511" r="5"/>
<circle cx="448.4346181918242" cy="849.039088439041" r="5"/>
<circle cx="-904.6698639208613" cy="-323.3170549998565" r="5"/>
<circle cx="885.9527363502214" cy="-372.89372473139116" r="5"/>
<circle cx="-401.60514341987846" cy="873.8854558918572" r="5"/>
<circle cx="-294.3290635324553" cy="-916.1513978872997" r="5"/>
<circle cx="836.3319299734187" cy="476.9825831702947" r="5"/>
<circle cx="-939.3887879910601" cy="213.33702676207582" r="5"/>
<circle cx="548.8646105385693" cy="-792.2828545030275" r="5"/>
<circle cx="130.53393261771689" cy="955.4715458487494" r="5"/>
<circle cx="-742.0622661277623" cy="-616.6920430252857" r="5"/>
<circle cx="964.2608342259355" cy="-46.55133262752856" r="5"/>
<circle cx="-679.9356306730765" cy="686.0422883342006" r="5"/>
<circle cx="37.96880818285246" cy="-965.6735230381538" r="5"/>
<circle cx="624.6403752114308" cy="738.1001865584333" r="5"/>
<circle cx="-959.6829471761563" cy="-122.37902145091141" r="5"/>
<circle cx="790.7284642057118" cy="-558.3162008548538" r="5"/>
<circle cx="-206.03129838654627" cy="946.3192318543464" r="5"/>
<circle cx="-487.5682175886727" cy="-837.4047515626931" r="5"/>
<circle cx="925.6691820663768" cy="288.28206736642693" r="5"/>
<circle cx="-877.7581532948109" cy="412.92990878247673" r="5"/>
<circle cx="368.49714795702374" cy="-897.8757360794898" r="5"/>
<circle cx="334.9657644417536" cy="911.4655354948003" r="5"/>
<circle cx="-863.1369862542408" cy="-446.0566432113112" r="5"/>
<circle cx="938.2541094484804" cy="-254.26700994458707" r="5"/>
<circle cx="-520.3597324795647" cy="821.7047738129811" r="5"/>
<circle cx="-171.44712025988548" cy="-957.9036338264742" r="5"/>
<circle cx="773.8828674730885" cy="590.8293276616582" r="5"/>
<circle cx="-970.2482175652632" cy="87.13715370065519" r="5"/>
<circle cx="656.9165568021209" cy="-720.0247390840071" r="5"/>
<circle cx="1.9809407253355873" cy="975.177708737087" r="5"/>
<circle cx="-660.5309525356996" cy="-718.105040183035" r="5"/>
<circle cx="972.6386578637711" cy="83.3698355107178" r="5"/>
<circle cx="-773.9149255945326" cy="595.8461852158291" r="5"/>
<circle cx="168.2606292425924" cy="-962.6348473804899" r="5"/>
<circle cx="526.45590416047" cy="823.9066512470202" r="5"/>
<circle cx="-945.2273822769316" cy="-252.03905458980307" r="5"/>
<circle cx="867.684406820071" cy="-452.8827217459825" r="5"/>
<circle cx="-334.0599018965673" cy="920.5343403098703" r="5"/>
<circle cx="-375.6824582867565" cy="-904.8992654050599" r="5"/>
<circle cx="888.7299835669239" cy="413.6901093261207" r="5"/>
<circle cx="-935.2519615751122" cy="295.4399412150503" r="5"/>
<circle cx="490.31365138197054" cy="-850.0435365402482" r="5"/>
<circle cx="212.76457260689818" cy="958.4952934881328" r="5"/>
<circle cx="-804.7575392150532" cy="-563.3363065897271" r="5"/>
<circle cx="974.4361297764193" cy="-128.2856986655221" r="5"/>
<circle cx="-632.1902674258008" cy="753.2057869652671" r="5"/>
<circle cx="-42.64781636612044" cy="-982.9370049780401" r="5"/>
<circle cx="695.7708722520022" cy="696.3385567177874" r="5"/>
<circle cx="-983.917290397959" cy="-43.49434620943607" r="5"/>
<circle cx="755.2792161576217" cy="-632.8813462148349" r="5"/>
<circle cx="-129.4808382733496" cy="977.353930526976" r="5"/>
<circle cx="-565.0085212072565" cy="-808.5492342521959" r="5"/>
<circle cx="963.2817384691468" cy="214.65154513444875" r="5"/>
<circle cx="-855.7281829746665" cy="492.66293813290747" r="5"/>
<circle cx="298.3512586035002" cy="-941.793247208062" r="5"/>
<circle cx="416.3905250664546" cy="896.4415345587272" r="5"/>
<circle cx="-913.0381169532419" cy="-379.93472003454343" r="5"/>
<circle cx="930.3636322813603" cy="-336.7684760716294" r="5"/>
<circle cx="-458.7715971674453" cy="877.2221022237926" r="5"/>
<circle cx="-254.40088133990136" cy="-957.2202916889639" r="5"/>
<circle cx="834.6055857210074" cy="534.2513563679954" r="5"/>
<circle cx="-976.7910115175864" cy="169.91414174907334" r="5"/>
<circle cx="605.7879925894604" cy="-785.5016893886549" r="5"/>
<circle cx="83.95220266605855" cy="988.9107765191161" r="5"/>
<circle cx="-730.2739763333727" cy="-672.8245803985565" r="5"/>
<circle cx="993.4714375092168" cy="2.828356721539922" r="5"/>
<circle cx="-734.8376107120263" cy="669.3337604525411" r="5"/>
<circle cx="89.7633410764468" cy="-990.4226571759241" r="5"/>
<circle cx="603.1370436685814" cy="791.3410794679327" r="5"/>
<circle cx="-979.7724135055433" cy="-176.18602521879208" r="5"/>
<circle cx="841.8902962967975" cy="-532.1811035731071" r="5"/>
<circle cx="-261.43227009829525" cy="961.5870560694838" r="5"/>
<circle cx="-457.00075701904103" cy="-886.0853833481699" r="5"/>
<circle cx="935.9909138459153" cy="344.84562915493535" r="5"/>
<circle cx="-923.5744367524809" cy="378.1643277423684" r="5"/>
<circle cx="425.78240578750706" cy="-903.1654566974024" r="5"/>
<circle cx="296.269348427611" cy="954.0563257387001" r="5"/>
<circle cx="-863.3480160633576" cy="-503.61662294779296" r="5"/>
<circle cx="977.2831071662132" cy="-211.93802973405187" r="5"/>
<circle fill="none" r="1000" stroke="black" stroke-width="2"/>
</svg>